# Blender 4.5.3 LTS
# www.blender.org
mtllib DrawingPlane.mtl
o SurfCurve
v -0.750000 -0.450374 0.065131
v -0.750000 -0.270491 0.065131
v -0.750000 -0.090609 0.065131
v -0.750000 0.089273 0.065131
v -0.750000 0.269156 0.065131
v -0.749999 0.449037 0.065131
v -0.663482 -0.450374 0.034020
v -0.663482 -0.270491 0.034020
v -0.663482 -0.090609 0.034020
v -0.663482 0.089273 0.034020
v -0.663482 0.269156 0.034020
v -0.663481 0.449037 0.034020
v -0.571185 -0.450374 0.007353
v -0.571185 -0.270491 0.007353
v -0.571185 -0.090609 0.007353
v -0.571185 0.089273 0.007353
v -0.571185 0.269156 0.007353
v -0.571185 0.449037 0.007354
v -0.474000 -0.450374 -0.014869
v -0.474000 -0.270491 -0.014869
v -0.474000 -0.090609 -0.014869
v -0.474000 0.089273 -0.014869
v -0.474000 0.269156 -0.014869
v -0.474000 0.449037 -0.014868
v -0.372815 -0.450374 -0.032647
v -0.372815 -0.270491 -0.032647
v -0.372815 -0.090609 -0.032647
v -0.372815 0.089273 -0.032647
v -0.372815 0.269156 -0.032647
v -0.372815 0.449037 -0.032646
v -0.268519 -0.450374 -0.045980
v -0.268519 -0.270491 -0.045980
v -0.268519 -0.090609 -0.045980
v -0.268519 0.089273 -0.045980
v -0.268519 0.269156 -0.045980
v -0.268519 0.449037 -0.045980
v -0.162001 -0.450374 -0.054869
v -0.162001 -0.270491 -0.054869
v -0.162001 -0.090609 -0.054869
v -0.162001 0.089273 -0.054869
v -0.162001 0.269156 -0.054869
v -0.162001 0.449037 -0.054869
v -0.054149 -0.450374 -0.059314
v -0.054149 -0.270491 -0.059314
v -0.054149 -0.090609 -0.059314
v -0.054149 0.089273 -0.059314
v -0.054149 0.269156 -0.059314
v -0.054149 0.449037 -0.059313
v 0.054147 -0.450374 -0.059314
v 0.054147 -0.270491 -0.059314
v 0.054147 -0.090609 -0.059314
v 0.054147 0.089273 -0.059314
v 0.054147 0.269156 -0.059314
v 0.054147 0.449037 -0.059313
v 0.161999 -0.450374 -0.054869
v 0.161999 -0.270491 -0.054869
v 0.161999 -0.090609 -0.054869
v 0.161999 0.089273 -0.054869
v 0.161999 0.269156 -0.054869
v 0.161999 0.449037 -0.054869
v 0.268518 -0.450374 -0.045980
v 0.268518 -0.270491 -0.045981
v 0.268518 -0.090609 -0.045981
v 0.268518 0.089273 -0.045981
v 0.268518 0.269156 -0.045981
v 0.268517 0.449037 -0.045980
v 0.372814 -0.450374 -0.032647
v 0.372814 -0.270491 -0.032647
v 0.372814 -0.090609 -0.032647
v 0.372814 0.089273 -0.032647
v 0.372814 0.269156 -0.032647
v 0.372814 0.449037 -0.032647
v 0.473999 -0.450374 -0.014870
v 0.473999 -0.270491 -0.014869
v 0.473999 -0.090609 -0.014869
v 0.473999 0.089273 -0.014869
v 0.473999 0.269156 -0.014869
v 0.473999 0.449037 -0.014869
v 0.571184 -0.450374 0.007353
v 0.571184 -0.270491 0.007353
v 0.571184 -0.090609 0.007353
v 0.571184 0.089273 0.007353
v 0.571184 0.269156 0.007353
v 0.571184 0.449037 0.007353
v 0.663480 -0.450374 0.034019
v 0.663480 -0.270491 0.034019
v 0.663480 -0.090609 0.034019
v 0.663480 0.089273 0.034019
v 0.663480 0.269156 0.034019
v 0.663480 0.449037 0.034020
v 0.749999 -0.450374 0.065130
v 0.749999 -0.270491 0.065130
v 0.749999 -0.090609 0.065130
v 0.749999 0.089273 0.065130
v 0.749999 0.269156 0.065130
v 0.749998 0.449037 0.065131
vn -0.3384 -0.0000 -0.9410
vn -0.3081 -0.0000 -0.9513
vn -0.2503 -0.0000 -0.9682
vn -0.1980 -0.0000 -0.9802
vn -0.1500 -0.0000 -0.9887
vn -0.1050 -0.0000 -0.9945
vn -0.0622 -0.0000 -0.9981
vn -0.0206 -0.0000 -0.9998
vn 0.0206 -0.0000 -0.9998
vn 0.0622 -0.0000 -0.9981
vn 0.1050 -0.0000 -0.9945
vn 0.1500 -0.0000 -0.9887
vn 0.1980 -0.0000 -0.9802
vn 0.2503 -0.0000 -0.9682
vn 0.3081 -0.0000 -0.9513
vn 0.3384 -0.0000 -0.9410
vt 0.000000 0.636364
vt 0.066667 0.636364
vt 0.066667 0.545455
vt 0.000000 0.545455
vt 0.000000 0.727273
vt 0.066667 0.727273
vt 0.000000 0.818182
vt 0.066667 0.818182
vt 0.000000 0.909091
vt 0.066667 0.909091
vt 0.000000 1.000000
vt 0.066667 1.000000
vt 0.133333 0.636364
vt 0.133333 0.545455
vt 0.133333 0.727273
vt 0.133333 0.818182
vt 0.133333 0.909091
vt 0.133333 1.000000
vt 0.200000 0.636364
vt 0.200000 0.545455
vt 0.200000 0.727273
vt 0.200000 0.818182
vt 0.200000 0.909091
vt 0.200000 1.000000
vt 0.266667 0.636364
vt 0.266667 0.545455
vt 0.266667 0.727273
vt 0.266667 0.818182
vt 0.266667 0.909091
vt 0.266667 1.000000
vt 0.333333 0.636364
vt 0.333333 0.545455
vt 0.333333 0.727273
vt 0.333333 0.818182
vt 0.333333 0.909091
vt 0.333333 1.000000
vt 0.400000 0.636364
vt 0.400000 0.545455
vt 0.400000 0.727273
vt 0.400000 0.818182
vt 0.400000 0.909091
vt 0.400000 1.000000
vt 0.466667 0.636364
vt 0.466667 0.545455
vt 0.466667 0.727273
vt 0.466667 0.818182
vt 0.466667 0.909091
vt 0.466667 1.000000
vt 0.533333 0.636364
vt 0.533333 0.545455
vt 0.533333 0.727273
vt 0.533333 0.818182
vt 0.533333 0.909091
vt 0.533333 1.000000
vt 0.600000 0.636364
vt 0.600000 0.545455
vt 0.600000 0.727273
vt 0.600000 0.818182
vt 0.600000 0.909091
vt 0.600000 1.000000
vt 0.666667 0.636364
vt 0.666667 0.545455
vt 0.666667 0.727273
vt 0.666667 0.818182
vt 0.666667 0.909091
vt 0.666667 1.000000
vt 0.733333 0.636364
vt 0.733333 0.545455
vt 0.733333 0.727273
vt 0.733333 0.818182
vt 0.733333 0.909091
vt 0.733333 1.000000
vt 0.800000 0.636364
vt 0.800000 0.545455
vt 0.800000 0.727273
vt 0.800000 0.818182
vt 0.800000 0.909091
vt 0.800000 1.000000
vt 0.866667 0.636364
vt 0.866667 0.545455
vt 0.866667 0.727273
vt 0.866667 0.818182
vt 0.866667 0.909091
vt 0.866667 1.000000
vt 0.933333 0.636364
vt 0.933333 0.545455
vt 0.933333 0.727273
vt 0.933333 0.818182
vt 0.933333 0.909091
vt 0.933333 1.000000
vt 1.000000 0.636364
vt 1.000000 0.545455
vt 1.000000 0.727273
vt 1.000000 0.818182
vt 1.000000 0.909091
vt 1.000000 1.000000
s 1
f 2/1/1 8/2/2 7/3/2 1/4/1
f 3/5/1 9/6/2 8/2/2 2/1/1
f 4/7/1 10/8/2 9/6/2 3/5/1
f 5/9/1 11/10/2 10/8/2 4/7/1
f 6/11/1 12/12/2 11/10/2 5/9/1
f 8/2/2 14/13/3 13/14/3 7/3/2
f 9/6/2 15/15/3 14/13/3 8/2/2
f 10/8/2 16/16/3 15/15/3 9/6/2
f 11/10/2 17/17/3 16/16/3 10/8/2
f 12/12/2 18/18/3 17/17/3 11/10/2
f 14/13/3 20/19/4 19/20/4 13/14/3
f 15/15/3 21/21/4 20/19/4 14/13/3
f 16/16/3 22/22/4 21/21/4 15/15/3
f 17/17/3 23/23/4 22/22/4 16/16/3
f 18/18/3 24/24/4 23/23/4 17/17/3
f 20/19/4 26/25/5 25/26/5 19/20/4
f 21/21/4 27/27/5 26/25/5 20/19/4
f 22/22/4 28/28/5 27/27/5 21/21/4
f 23/23/4 29/29/5 28/28/5 22/22/4
f 24/24/4 30/30/5 29/29/5 23/23/4
f 26/25/5 32/31/6 31/32/6 25/26/5
f 27/27/5 33/33/6 32/31/6 26/25/5
f 28/28/5 34/34/6 33/33/6 27/27/5
f 29/29/5 35/35/6 34/34/6 28/28/5
f 30/30/5 36/36/6 35/35/6 29/29/5
f 32/31/6 38/37/7 37/38/7 31/32/6
f 33/33/6 39/39/7 38/37/7 32/31/6
f 34/34/6 40/40/7 39/39/7 33/33/6
f 35/35/6 41/41/7 40/40/7 34/34/6
f 36/36/6 42/42/7 41/41/7 35/35/6
f 38/37/7 44/43/8 43/44/8 37/38/7
f 39/39/7 45/45/8 44/43/8 38/37/7
f 40/40/7 46/46/8 45/45/8 39/39/7
f 41/41/7 47/47/8 46/46/8 40/40/7
f 42/42/7 48/48/8 47/47/8 41/41/7
f 44/43/8 50/49/9 49/50/9 43/44/8
f 45/45/8 51/51/9 50/49/9 44/43/8
f 46/46/8 52/52/9 51/51/9 45/45/8
f 47/47/8 53/53/9 52/52/9 46/46/8
f 48/48/8 54/54/9 53/53/9 47/47/8
f 50/49/9 56/55/10 55/56/10 49/50/9
f 51/51/9 57/57/10 56/55/10 50/49/9
f 52/52/9 58/58/10 57/57/10 51/51/9
f 53/53/9 59/59/10 58/58/10 52/52/9
f 54/54/9 60/60/10 59/59/10 53/53/9
f 56/55/10 62/61/11 61/62/11 55/56/10
f 57/57/10 63/63/11 62/61/11 56/55/10
f 58/58/10 64/64/11 63/63/11 57/57/10
f 59/59/10 65/65/11 64/64/11 58/58/10
f 60/60/10 66/66/11 65/65/11 59/59/10
f 62/61/11 68/67/12 67/68/12 61/62/11
f 63/63/11 69/69/12 68/67/12 62/61/11
f 64/64/11 70/70/12 69/69/12 63/63/11
f 65/65/11 71/71/12 70/70/12 64/64/11
f 66/66/11 72/72/12 71/71/12 65/65/11
f 68/67/12 74/73/13 73/74/13 67/68/12
f 69/69/12 75/75/13 74/73/13 68/67/12
f 70/70/12 76/76/13 75/75/13 69/69/12
f 71/71/12 77/77/13 76/76/13 70/70/12
f 72/72/12 78/78/13 77/77/13 71/71/12
f 74/73/13 80/79/14 79/80/14 73/74/13
f 75/75/13 81/81/14 80/79/14 74/73/13
f 76/76/13 82/82/14 81/81/14 75/75/13
f 77/77/13 83/83/14 82/82/14 76/76/13
f 78/78/13 84/84/14 83/83/14 77/77/13
f 80/79/14 86/85/15 85/86/15 79/80/14
f 81/81/14 87/87/15 86/85/15 80/79/14
f 82/82/14 88/88/15 87/87/15 81/81/14
f 83/83/14 89/89/15 88/88/15 82/82/14
f 84/84/14 90/90/15 89/89/15 83/83/14
f 86/85/15 92/91/16 91/92/16 85/86/15
f 87/87/15 93/93/16 92/91/16 86/85/15
f 88/88/15 94/94/16 93/93/16 87/87/15
f 89/89/15 95/95/16 94/94/16 88/88/15
f 90/90/15 96/96/16 95/95/16 89/89/15
